<svg height="512" viewBox="0 0 512 512" width="512" xmlns="http://www.w3.org/2000/svg"><path d="m488 256c0 128.13-103.87 232-232 232a232 232 0 0 1 -232-232c0-128.13 103.87-232 232-232a232 232 0 0 1 232 232z" fill="#348fd9"/><path d="m403.75 77.13c-120.46 37.5-275.18 124.38-327.65 325.36a231.028 231.028 0 0 1 -52.1-146.49c0-128.13 103.87-232 232-232a231.022 231.022 0 0 1 147.75 53.13z" fill="#3086cd"/><path d="m110.078 131.352-12.156-10.407c4.351-5.086 9.023-10.031 13.875-14.711l11.094 11.532c-4.477 4.312-8.791 8.882-12.813 13.586z" fill="#348fd9"/><path d="m64.609 240.633-15.953-1.266a207.42 207.42 0 0 1 37.516-103.351l13.062 9.25a191.284 191.284 0 0 0 -34.625 95.367z" fill="#348fd9"/><path d="m224 80h-56v96a47.924 47.924 0 0 0 19.466 38.585c8.088 5.965 12.218 15.928 11.875 25.971l-5.72 183.458a23.2 23.2 0 1 0 46.365 0l-7.327-183.458c-.343-10.043 3.787-20.006 11.875-25.971a47.924 47.924 0 0 0 19.466-38.585v-96z" fill="#3086cd"/><path d="m349.366 88a26.634 26.634 0 0 0 -26 20.856 477.284 477.284 0 0 0 -11.366 103.535v83.609h27.035l-9.327 127.232a23.173 23.173 0 1 0 46.292 1.595v-310.193a26.634 26.634 0 0 0 -26.634-26.634z" fill="#3086cd"/><path d="m256 408c-83.812 0-152-68.188-152-152s68.188-152 152-152 152 68.188 152 152-68.188 152-152 152zm0-288c-74.992 0-136 61.008-136 136s61.008 136 136 136 136-61.008 136-136-61.008-136-136-136z" fill="#2d7dbf"/><path d="m152 64v96a47.924 47.924 0 0 0 19.466 38.585c8.088 5.965 12.218 15.928 11.875 25.971l-5.72 183.458a23.2 23.2 0 1 0 46.365 0l-7.327-183.458c-.343-10.043 3.787-20.006 11.875-25.971a47.924 47.924 0 0 0 19.466-38.585v-96z" fill="#ebebe9"/><path d="m176 64h16v88h-16z" fill="#d6d6d4"/><path d="m208 64h16v88h-16z" fill="#d6d6d4"/><path d="m307.365 92.857a477.268 477.268 0 0 0 -11.365 103.534v83.609h27.035l-9.327 127.232a23.174 23.174 0 0 0 23.119 24.768 23.173 23.173 0 0 0 23.173-23.173v-310.192a26.635 26.635 0 0 0 -26.635-26.635 26.634 26.634 0 0 0 -26 20.857z" fill="#ebebe9"/></svg>